<svg width="26" height="28" viewBox="0 0 26 28" fill="none" xmlns="http://www.w3.org/2000/svg">
<g filter="url(#filter0_d_5196_438)">
<path d="M10.3817 18.0503V15.239C10.3817 14.5266 10.961 13.9478 11.6785 13.9433H14.3132C15.0339 13.9433 15.6182 14.5234 15.6182 15.239V18.0421C15.6182 18.66 16.1203 19.1622 16.7427 19.1667H18.5401C19.3796 19.1688 20.1855 18.8392 20.7799 18.2507C21.3742 17.6621 21.7083 16.8629 21.7083 16.0294V8.0437C21.7083 7.37045 21.4077 6.73183 20.8875 6.29989L14.781 1.45142C13.7136 0.603372 12.1891 0.630768 11.1532 1.51661L5.17805 6.29989C4.6333 6.7191 4.30772 7.35961 4.29163 8.0437V16.0213C4.29163 17.7584 5.71006 19.1667 7.45978 19.1667H9.21623C9.51587 19.1688 9.80399 19.0522 10.0166 18.8426C10.2293 18.633 10.3489 18.3478 10.3489 18.0503H10.3817Z" fill="#ff0000"/>
</g>
<defs>
<filter id="filter0_d_5196_438" x="0.291626" y="0.833344" width="25.4166" height="26.3334" filterUnits="userSpaceOnUse" color-interpolation-filters="sRGB">
<feFlood flood-opacity="0" result="BackgroundImageFix"/>
<feColorMatrix in="SourceAlpha" type="matrix" values="0 0 0 0 0 0 0 0 0 0 0 0 0 0 0 0 0 0 127 0" result="hardAlpha"/>
<feOffset dy="4"/>
<feGaussianBlur stdDeviation="2"/>
<feComposite in2="hardAlpha" operator="out"/>
<feColorMatrix type="matrix" values="0 0 0 0 0 0 0 0 0 0 0 0 0 0 0 0 0 0 0.25 0"/>
<feBlend mode="normal" in2="BackgroundImageFix" result="effect1_dropShadow_5196_438"/>
<feBlend mode="normal" in="SourceGraphic" in2="effect1_dropShadow_5196_438" result="shape"/>
</filter>
</defs>
</svg>
