<svg width="26" height="24" viewBox="0 0 26 24" fill="none" xmlns="http://www.w3.org/2000/svg">
<g filter="url(#filter0_d_8707_90)">
<path d="M17.5 12.5625C17.38 12.5625 17.2675 12.525 17.1625 12.45C16.915 12.2625 16.8625 11.91 17.05 11.6625C18.2275 10.095 18.2275 7.90499 17.05 6.33749C16.8625 6.08999 16.915 5.73749 17.1625 5.54999C17.41 5.36249 17.7625 5.41499 17.95 5.66249C19.42 7.62749 19.42 10.3725 17.95 12.3375C17.8375 12.4875 17.6725 12.5625 17.5 12.5625Z" fill="#EFEEE0"/>
<path d="M18.8725 14.4375C18.7525 14.4375 18.64 14.4 18.535 14.325C18.2875 14.1375 18.235 13.785 18.4225 13.5375C20.425 10.8675 20.425 7.13249 18.4225 4.46249C18.235 4.21499 18.2875 3.86249 18.535 3.67499C18.7825 3.48749 19.135 3.53999 19.3225 3.78749C21.625 6.85499 21.625 11.145 19.3225 14.2125C19.2175 14.3625 19.045 14.4375 18.8725 14.4375Z" fill="#EFEEE0"/>
<path d="M14.515 2.83501C13.675 2.37001 12.6025 2.49001 11.5075 3.17251L9.3175 4.54501C9.1675 4.63501 8.995 4.68751 8.8225 4.68751H8.125H7.75C5.935 4.68751 4.9375 5.68501 4.9375 7.50001V10.5C4.9375 12.315 5.935 13.3125 7.75 13.3125H8.125H8.8225C8.995 13.3125 9.1675 13.365 9.3175 13.455L11.5075 14.8275C12.1675 15.24 12.8125 15.4425 13.4125 15.4425C13.8025 15.4425 14.1775 15.3525 14.515 15.165C15.3475 14.7 15.8125 13.7325 15.8125 12.4425V5.55751C15.8125 4.26751 15.3475 3.30001 14.515 2.83501Z" fill="#EFEEE0"/>
</g>
<defs>
<filter id="filter0_d_8707_90" x="0.9375" y="2.55637" width="24.1119" height="20.8861" filterUnits="userSpaceOnUse" color-interpolation-filters="sRGB">
<feFlood flood-opacity="0" result="BackgroundImageFix"/>
<feColorMatrix in="SourceAlpha" type="matrix" values="0 0 0 0 0 0 0 0 0 0 0 0 0 0 0 0 0 0 127 0" result="hardAlpha"/>
<feOffset dy="4"/>
<feGaussianBlur stdDeviation="2"/>
<feComposite in2="hardAlpha" operator="out"/>
<feColorMatrix type="matrix" values="0 0 0 0 0 0 0 0 0 0 0 0 0 0 0 0 0 0 0.25 0"/>
<feBlend mode="normal" in2="BackgroundImageFix" result="effect1_dropShadow_8707_90"/>
<feBlend mode="normal" in="SourceGraphic" in2="effect1_dropShadow_8707_90" result="shape"/>
</filter>
</defs>
</svg>
